# xmcd CD database file
#
# Track frame offsets:
#	150
#	3523
#	19768
#	43772
#	63992
#	86891
#	102043
#	122273
#	148259
#	168405
#	194114
#	209414
#
# Disc length: 3047 seconds
#
# Revision: 0
# Processed by: cddbd v1.5.1PL0 Copyright (c) Steve Scherf et al.
# Submitted via: CDex 1.51
#
DISCID=a90be50c
DTITLE=PROJECT YNP - 新世紀GPPX サイバーフォーミュラSIN CYBER GRANDPRIX2 -BOOST PACK-
DYEAR=2005
DGENRE=Game
TTITLE0=Speed Highway
TTITLE1=Expressionless
TTITLE2=icy doll
TTITLE3=夕霧草 〜remix〜
TTITLE4=カッシア 〜remix〜
TTITLE5=FM@baycity
TTITLE6=code-G++ 〜remix〜
TTITLE7=cyber lock
TTITLE8=sync bird 〜remix〜
TTITLE9=Blue Paints 〜remix〜
TTITLE10=far-a-way 〜Sound track ver〜
TTITLE11=Photogra 〜Sound track ver〜
EXTD=YEAR: 2005
EXTT0=
EXTT1=
EXTT2=
EXTT3=
EXTT4=
EXTT5=
EXTT6=
EXTT7=
EXTT8=
EXTT9=
EXTT10=
EXTT11=
PLAYORDER=
